<?xml version="1.0" encoding="UTF-8"?>
<svg version="1.1" xmlns="http://www.w3.org/2000/svg" width="497" height="502">
<path d="M0 0 C164.01 0 328.02 0 497 0 C497 165.66 497 331.32 497 502 C332.99 502 168.98 502 0 502 C0 336.34 0 170.68 0 0 Z " fill="#FCEFF9" transform="translate(0,0)"/>
<path d="M0 0 C0.0998843 14.25886737 0.13389362 28.49985505 -0.4375 42.75 C-0.47673584 43.75281006 -0.51597168 44.75562012 -0.55639648 45.78881836 C-0.81123289 51.56494725 -1.29738182 57.26096751 -2 63 C-0.10507813 63.05607422 -0.10507813 63.05607422 1.828125 63.11328125 C12.93073308 63.49972446 23.95037195 64.27715892 35 65.4375 C36.79679199 65.62082886 36.79679199 65.62082886 38.62988281 65.80786133 C39.76264648 65.93185303 40.89541016 66.05584473 42.0625 66.18359375 C43.06410156 66.29243896 44.06570313 66.40128418 45.09765625 66.51342773 C46.05542969 66.67399658 47.01320313 66.83456543 48 67 C49.02222656 67.13801025 50.04445313 67.27602051 51.09765625 67.41821289 C55.77331026 69.96646006 56.66085771 74.27604495 58.375 79.125 C58.72949219 80.06988281 59.08398438 81.01476562 59.44921875 81.98828125 C60.32020136 84.31874824 61.16923931 86.65495742 62 89 C62.66826309 89.08325531 63.33652618 89.16651062 64.02503967 89.25228882 C71.05072471 90.12770997 78.07629657 91.0040352 85.10180664 91.88085938 C87.71538514 92.20693241 90.32899134 92.53278348 92.94262695 92.85839844 C120.81053644 96.33057061 120.81053644 96.33057061 133 98 C132.20886783 102.16556212 131.07358379 106.05015218 129.6875 110.0625 C129.07455078 111.87427734 129.07455078 111.87427734 128.44921875 113.72265625 C125.90103935 119.48525064 122.54229224 121.35451444 117 124 C115.67248688 124.779532 114.35264698 125.57221919 113.0390625 126.375 C112.31847656 126.80296875 111.59789062 127.2309375 110.85546875 127.671875 C109.39722633 128.54018047 107.94868309 129.42504205 106.51171875 130.328125 C93.83635617 137.72394289 77.05786659 137.85519178 62.76391602 139.56210327 C48.6482495 141.25025772 34.53888411 142.9377574 20.5 145.1875 C12.3668405 146.4881375 4.23168929 147.69548458 -3.9375 148.75 C-4.89140625 148.87785889 -5.8453125 149.00571777 -6.828125 149.13745117 C-9.54978728 149.47934315 -12.26799433 149.7551377 -15 150 C-15.97380615 150.10489746 -16.9476123 150.20979492 -17.95092773 150.31787109 C-24.96982361 150.7750248 -24.96982361 150.7750248 -27.70825195 148.71484375 C-29.11014453 146.92189828 -30.15124215 145.14996276 -31.1875 143.125 C-31.56712891 142.47402344 -31.94675781 141.82304687 -32.33789062 141.15234375 C-35 136.48282098 -35 136.48282098 -35 134 C-36.07378906 134.20496094 -37.14757812 134.40992188 -38.25390625 134.62109375 C-39.6900886 134.89331132 -41.1262874 135.16544211 -42.5625 135.4375 C-43.26697266 135.57220703 -43.97144531 135.70691406 -44.69726562 135.84570312 C-49.12027231 136.68138642 -53.53930209 137.39625245 -58 138 C-59.00736628 135.06497405 -60.00460504 132.12660539 -61 129.1875 C-61.28617188 128.35412109 -61.57234375 127.52074219 -61.8671875 126.66210938 C-62.13789063 125.85966797 -62.40859375 125.05722656 -62.6875 124.23046875 C-62.93886719 123.49207764 -63.19023437 122.75368652 -63.44921875 121.99291992 C-64 120 -64 120 -64 117 C-65.24136719 117.22816406 -66.48273438 117.45632812 -67.76171875 117.69140625 C-69.40356156 117.98224698 -71.04549344 118.27258519 -72.6875 118.5625 C-73.50412109 118.71396484 -74.32074219 118.86542969 -75.16210938 119.02148438 C-75.95810547 119.16005859 -76.75410156 119.29863281 -77.57421875 119.44140625 C-78.30213623 119.57232666 -79.03005371 119.70324707 -79.7800293 119.83813477 C-82.35290547 120.02573148 -84.50165851 119.6010614 -87 119 C-90.77997295 106.2658146 -94.46056816 93.50806642 -97.9375 80.6875 C-98.24373291 79.56746582 -98.54996582 78.44743164 -98.86547852 77.29345703 C-99.14576904 76.2517334 -99.42605957 75.21000977 -99.71484375 74.13671875 C-99.96355225 73.21592529 -100.21226074 72.29513184 -100.46850586 71.34643555 C-101 69 -101 69 -101 66 C-99.22338989 66.04882324 -99.22338989 66.04882324 -97.41088867 66.09863281 C-92.96922869 66.20445917 -88.52997746 66.22967051 -84.0871582 66.23193359 C-82.17349015 66.24385676 -80.25982203 66.2769493 -78.34692383 66.33251953 C-66.63132347 67.01542655 -66.63132347 67.01542655 -56.34423828 62.38476562 C-53.5127582 59.52411853 -51.24844976 56.33554302 -49 53 C-47.8543582 51.64855864 -46.69295373 50.30986652 -45.5 49 C-44.96375 48.38125 -44.4275 47.7625 -43.875 47.125 C-41.45449858 44.38176506 -38.97795822 41.69118757 -36.5 39 C-32.84960618 35.03464129 -29.25046167 31.03288414 -25.71484375 26.96484375 C-19.77008815 20.15342674 -13.64755125 13.50306026 -7.5 6.875 C-6.87601318 6.19880615 -6.25202637 5.5226123 -5.60913086 4.82592773 C-5.02655518 4.20016846 -4.44397949 3.57440918 -3.84375 2.9296875 C-3.31974609 2.36491699 -2.79574219 1.80014648 -2.25585938 1.21826172 C-1 0 -1 0 0 0 Z " fill="#5395FD" transform="translate(244,87)"/>
<path d="M0 0 C2.75031587 0.14111883 5.50015418 0.28771165 8.25 0.4375 C9.41595703 0.49647461 9.41595703 0.49647461 10.60546875 0.55664062 C11.73662109 0.61948242 11.73662109 0.61948242 12.890625 0.68359375 C13.92751465 0.73858032 13.92751465 0.73858032 14.98535156 0.79467773 C17.09071871 1.00924557 18.98698578 1.34283597 21 2 C21.95385742 3.73291016 21.95385742 3.73291016 22.60546875 6.0390625 C22.99109985 7.3537854 22.99109985 7.3537854 23.38452148 8.69506836 C23.64950439 9.6619458 23.9144873 10.62882324 24.1875 11.625 C24.4750415 12.62088135 24.76258301 13.6167627 25.05883789 14.64282227 C25.69664138 16.85671203 26.32698175 19.07276093 26.95117188 21.29052734 C28.09674183 25.3421544 29.27141882 29.38458324 30.453125 33.42578125 C32.65033571 40.94625058 34.82988953 48.47166526 37 56 C41.05617741 56.03315515 44.69333074 56.0293825 48.625 55 C51.83984948 54.16437125 54.67493575 53.90666486 58 54 C58.80157758 55.80813875 59.59069175 57.62180373 60.375 59.4375 C60.81585938 60.44683594 61.25671875 61.45617187 61.7109375 62.49609375 C63.22326218 66.60686719 64.14823246 70.71164562 65 75 C65.62044189 74.84329834 66.24088379 74.68659668 66.88012695 74.52514648 C69.68887206 73.82079114 72.5005683 73.12901875 75.3125 72.4375 C76.28896484 72.19064453 77.26542969 71.94378906 78.27148438 71.68945312 C79.20927734 71.46064453 80.14707031 71.23183594 81.11328125 70.99609375 C81.97735596 70.78138428 82.84143066 70.5666748 83.73168945 70.34545898 C86 70 86 70 89 71 C90.38671875 72.7421875 90.38671875 72.7421875 91.6875 74.875 C92.12449219 75.57367188 92.56148438 76.27234375 93.01171875 76.9921875 C94 79 94 79 94 82 C92.87722656 82.25394531 91.75445312 82.50789063 90.59765625 82.76953125 C80.15363249 85.1468652 80.15363249 85.1468652 69.9375 88.33984375 C66.67875036 89.45018385 63.3485939 90.20851417 60 91 C59.01 89.02 58.02 87.04 57 85 C51.57500185 85.69255295 46.32981419 86.77004288 41 88 C40.34 82.72 39.68 77.44 39 72 C32.07 72 25.14 72 18 72 C17.14093575 63.94627266 16.91289946 56.10035012 17 48 C10.73 48 4.46 48 -2 48 C-2.13318677 37.71132178 -1.60620297 27.51476569 -1 17.25 C-0.90333304 15.57033047 -0.80697667 13.89064304 -0.7109375 12.2109375 C-0.47753311 8.14041003 -0.23994594 4.07014688 0 0 Z " fill="#5696FB" transform="translate(116,159)"/>
<path d="M0 0 C29.24137931 0 29.24137931 0 36.875 4.8125 C40.78351719 8.83597357 42.18132117 12.3881805 42.375 17.9375 C42.16964549 23.87492394 41.00530075 28.04747032 36.625 32.3125 C32.13566601 35.19850042 28.60012347 36.25240774 23.26171875 36.1953125 C21.81865356 36.18781982 21.81865356 36.18781982 20.34643555 36.18017578 C19.13898682 36.16196777 17.93153809 36.14375977 16.6875 36.125 C12.830625 36.08375 8.97375 36.0425 5 36 C5 45.24 5 54.48 5 64 C3.35 64 1.7 64 0 64 C0 42.88 0 21.76 0 0 Z " fill="#F8EBF6" transform="translate(92,339)"/>
<path d="M0 0 C6.12859746 6.12859746 6.3125 10.42175001 6.3125 19.3125 C-5.8975 19.3125 -18.1075 19.3125 -30.6875 19.3125 C-30.08158473 25.75441345 -30.08158473 25.75441345 -26.875 30.125 C-26.37355469 30.68832031 -25.87210938 31.25164062 -25.35546875 31.83203125 C-21.51728171 35.23875933 -18.33142399 35.60737656 -13.25 35.625 C-12.13753906 35.64175781 -11.02507812 35.65851563 -9.87890625 35.67578125 C-6.3746053 35.27688286 -4.60504205 34.20915255 -1.6875 32.3125 C-0.6975 32.3125 0.2925 32.3125 1.3125 32.3125 C1.8075 34.7875 1.8075 34.7875 2.3125 37.3125 C-5.40611921 41.34723277 -13.12928336 42.84074498 -21.81640625 40.81640625 C-28.18517668 38.29454413 -32.30855816 34.78996454 -35.0625 28.625 C-37.33282981 22.24147852 -37.97134081 15.88036943 -35.375 9.5 C-34.818125 8.448125 -34.26125 7.39625 -33.6875 6.3125 C-33.295625 5.44625 -32.90375 4.58 -32.5 3.6875 C-24.24330771 -7.13161404 -10.64032932 -6.68113702 0 0 Z " fill="#33324A" transform="translate(203.6875,362.6875)"/>
<path d="M0 0 C4.53686007 2.84959806 8.20137917 7.11976252 9.890625 12.1875 C9.890625 15.4875 9.890625 18.7875 9.890625 22.1875 C-2.319375 22.1875 -14.529375 22.1875 -27.109375 22.1875 C-24.76454461 30.26296023 -24.76454461 30.26296023 -20.109375 36.1875 C-14.60420796 38.88778919 -9.11979241 38.75759379 -3.109375 38.1875 C0.32657707 36.7649139 0.32657707 36.7649139 2.890625 35.1875 C3.880625 35.5175 4.870625 35.8475 5.890625 36.1875 C6.220625 37.1775 6.550625 38.1675 6.890625 39.1875 C-0.70111402 44.53622522 -6.89187003 44.96022497 -16.109375 44.1875 C-23.1384625 42.30247815 -27.41527376 37.3578211 -31.25 31.421875 C-33.45830053 25.68029362 -32.99352492 17.51310935 -31.421875 11.6015625 C-28.76864413 5.83078535 -24.5838369 2.81839534 -19.359375 -0.625 C-13.03330824 -2.93644747 -6.21484231 -2.62741301 0 0 Z " fill="#282742" transform="translate(324.109375,359.8125)"/>
<path d="M0 0 C1.30453125 -0.02578125 2.6090625 -0.0515625 3.953125 -0.078125 C9.20224297 0.37550248 12.44625504 1.87578234 16.0625 5.6875 C19.06257802 10.24317402 18.88690162 14.52767197 18.84765625 19.859375 C18.8462413 20.58618469 18.84482635 21.31299438 18.84336853 22.06182861 C18.83778792 24.37459494 18.82523904 26.68726312 18.8125 29 C18.80748249 30.57161318 18.80292002 32.14322789 18.79882812 33.71484375 C18.78782485 37.55993343 18.77057361 41.4049501 18.75 45.25 C17.1 45.25 15.45 45.25 13.75 45.25 C13.42 43.93 13.09 42.61 12.75 41.25 C11.3578125 42.2090625 11.3578125 42.2090625 9.9375 43.1875 C4.12457161 46.9488066 -1.49218693 46.89360124 -8.25 46.25 C-12.70531067 44.13958968 -15.40810959 41.85472604 -17.25 37.25 C-17.89972664 32.84629723 -17.85645456 29.43654154 -15.8125 25.4375 C-6.92916414 17.85416451 2.67152921 18.81976812 13.75 19.25 C13.54662373 17.82940157 13.3109859 16.41340602 13.0625 15 C12.93488281 14.21109375 12.80726563 13.4221875 12.67578125 12.609375 C11.37617208 9.29729088 9.76419989 8.09781741 6.75 6.25 C-0.01858123 5.23899673 -6.84511665 5.86678759 -13.25 8.25 C-13.58 6.93 -13.91 5.61 -14.25 4.25 C-8.99112234 1.0669951 -6.2413256 0.07342736 0 0 Z " fill="#24233F" transform="translate(386.25,357.75)"/>
<path d="M0 0 C0.33 0 0.66 0 1 0 C1.20420966 14.68324172 0.61841626 29.17425761 -0.5 43.8125 C-0.6452289 45.7883603 -0.78976285 47.76427181 -0.93359375 49.74023438 C-1.28110533 54.49411434 -1.63783412 59.24721493 -2 64 C-5.35442664 63.8598002 -8.70846775 63.71181572 -12.0625 63.5625 C-13.00544922 63.52318359 -13.94839844 63.48386719 -14.91992188 63.44335938 C-20.01115478 63.21274604 -24.97064756 62.8300873 -30 62 C-29.35339308 57.00620505 -27.22854645 52.85590874 -25.0625 48.375 C-24.66281006 47.54033203 -24.26312012 46.70566406 -23.85131836 45.84570312 C-19.8728641 37.60919833 -15.62045154 29.52487456 -11.31005859 21.45849609 C-8.98014582 17.0861104 -6.67958964 12.69826888 -4.375 8.3125 C-3.52876767 6.70436296 -2.68242528 5.09628384 -1.8359375 3.48828125 C-1.23007812 2.33714844 -0.62421875 1.18601562 0 0 Z " fill="#5796FA" transform="translate(289,84)"/>
<path d="M0 0 C2.18361949 1.43799333 3.954754 2.63315789 5.5625 4.6875 C5.5625 5.3475 5.5625 6.0075 5.5625 6.6875 C6.23345703 6.07261719 6.23345703 6.07261719 6.91796875 5.4453125 C12.88786403 0.12459559 17.05343078 -1.74639456 25.12890625 -1.56640625 C30.48282117 -1.0078116 34.16208366 1.65737693 37.5625 5.6875 C38.79430134 9.38290402 38.68662112 12.79053378 38.66015625 16.63671875 C38.6587413 17.40933548 38.65732635 18.18195221 38.65586853 18.97798157 C38.65027466 21.44369389 38.63772333 23.90931515 38.625 26.375 C38.61998421 28.04752473 38.61542144 29.72005088 38.61132812 31.39257812 C38.60030724 35.49092046 38.58304684 39.58919479 38.5625 43.6875 C37.2425 43.6875 35.9225 43.6875 34.5625 43.6875 C34.54791748 42.77983887 34.53333496 41.87217773 34.51831055 40.93701172 C34.45701851 37.5484069 34.38282424 34.16058311 34.30004883 30.77246094 C34.26692865 29.31000292 34.23885695 27.84742105 34.21606445 26.38476562 C34.18227825 24.27420597 34.1299562 22.16476814 34.07421875 20.0546875 C34.04803467 18.78737793 34.02185059 17.52006836 33.99487305 16.21435547 C33.52910557 12.41510254 32.53516949 9.94788009 30.5625 6.6875 C26.61915838 3.90301796 22.20579099 4.04259847 17.5625 4.6875 C12.5251152 7.1129075 10.6796363 9.60380345 8.5625 14.6875 C8.0658705 18.06199426 8.0658705 18.06199426 8.05078125 21.6171875 C8.01533203 22.90625 7.97988281 24.1953125 7.94335938 25.5234375 C7.92026507 26.86978642 7.89748245 28.21614072 7.875 29.5625 C7.84179117 30.93232371 7.80729825 32.30211692 7.77148438 33.671875 C7.68919841 37.0103341 7.61998072 40.34853685 7.5625 43.6875 C5.9125 43.6875 4.2625 43.6875 2.5625 43.6875 C2.54848145 42.17397949 2.54848145 42.17397949 2.53417969 40.62988281 C2.4942523 36.87976224 2.42848719 33.13045971 2.35498047 29.38085938 C2.32678653 27.75922163 2.30556406 26.13744687 2.29150391 24.515625 C2.27005128 22.18157895 2.22339425 19.84917739 2.171875 17.515625 C2.17064636 16.79256165 2.16941772 16.06949829 2.16815186 15.32452393 C2.06920325 11.91024114 1.8080903 10.00955378 -0.28808594 7.26074219 C-4.56094658 4.13326445 -9.32783403 3.90273902 -14.4375 4.6875 C-18.27914799 6.71368565 -20.88925114 9.64092063 -22.4375 13.6875 C-22.80444621 16.97970552 -22.80444621 16.97970552 -22.8515625 20.640625 C-22.87092865 21.30084656 -22.8902948 21.96106812 -22.9102478 22.64129639 C-22.96979349 24.73990153 -23.01632722 26.83856228 -23.0625 28.9375 C-23.10070294 30.3646066 -23.13975602 31.79169072 -23.1796875 33.21875 C-23.2754733 36.70812691 -23.35959642 40.19767286 -23.4375 43.6875 C-25.0875 43.6875 -26.7375 43.6875 -28.4375 43.6875 C-28.4375 29.1675 -28.4375 14.6475 -28.4375 -0.3125 C-26.7875 -0.3125 -25.1375 -0.3125 -23.4375 -0.3125 C-23.1075 1.6675 -22.7775 3.6475 -22.4375 5.6875 C-21.695 4.90375 -20.9525 4.12 -20.1875 3.3125 C-14.29887661 -2.3084587 -7.55392222 -2.88422485 0 0 Z " fill="#3F3D58" transform="translate(245.4375,359.3125)"/>
<path d="M0 0 C29.24137931 0 29.24137931 0 36.875 4.8125 C40.78351719 8.83597357 42.18132117 12.3881805 42.375 17.9375 C42.16964549 23.87492394 41.00530075 28.04747032 36.625 32.3125 C32.13566601 35.19850042 28.60012347 36.25240774 23.26171875 36.1953125 C21.81865356 36.18781982 21.81865356 36.18781982 20.34643555 36.18017578 C19.13898682 36.16196777 17.93153809 36.14375977 16.6875 36.125 C12.830625 36.08375 8.97375 36.0425 5 36 C5 45.24 5 54.48 5 64 C3.35 64 1.7 64 0 64 C0 42.88 0 21.76 0 0 Z M5 6 C4.91251793 7.92667507 4.89302666 9.85651861 4.90234375 11.78515625 C4.90556641 12.95498047 4.90878906 14.12480469 4.91210938 15.33007812 C4.92048828 16.56177734 4.92886719 17.79347656 4.9375 19.0625 C4.94201172 20.29806641 4.94652344 21.53363281 4.95117188 22.80664062 C4.96300392 25.87114117 4.97948827 28.93554721 5 32 C20.63026235 33.02768972 20.63026235 33.02768972 34.5 27 C37.36970131 23.17373159 37.32016328 19.64236757 37 15 C35.088114 10.43271678 32.21721752 8.46004355 28 6 C25.20127394 5.06709131 23.48011055 4.87140553 20.5859375 4.8671875 C19.74289063 4.86589844 18.89984375 4.86460937 18.03125 4.86328125 C16.71640625 4.86908203 16.71640625 4.86908203 15.375 4.875 C14.04855469 4.86919922 14.04855469 4.86919922 12.6953125 4.86328125 C11.85484375 4.86457031 11.014375 4.86585938 10.1484375 4.8671875 C8.99093994 4.86887939 8.99093994 4.86887939 7.81005859 4.87060547 C5.97875951 4.8029448 5.97875951 4.8029448 5 6 Z " fill="#1F1E3A" transform="translate(92,339)"/>
<path d="M0 0 C1 1 1 1 1.25 4.1875 C0.97325147 8.40791503 0.39376988 10.52517275 -2 14 C-6.96972072 17.93436224 -11.15550776 18.7008979 -17.46484375 18.44921875 C-20 18 -20 18 -23.1875 15.875 C-25.34663968 12.45015775 -25.82630866 10.96628159 -25 7 C-22.31281819 3.41709091 -19.65447121 1.31277544 -15.2421875 0.2734375 C-10.19643291 -0.34189843 -5.06820134 -0.31584443 0 0 Z " fill="#F4E8F2" transform="translate(399,381)"/>
<path d="M0 0 C2.73936522 2.66327175 3.97561679 4.56556878 5.25 8.1875 C5.25 11.4875 5.25 14.7875 5.25 18.1875 C-6.63 18.1875 -18.51 18.1875 -30.75 18.1875 C-30.75 16.8675 -30.75 15.5475 -30.75 14.1875 C-20.52 14.1875 -10.29 14.1875 0.25 14.1875 C-1.84665457 5.77393523 -1.84665457 5.77393523 -5.1875 2.625 C-10.41922968 0.51395118 -15.18621596 0.44718854 -20.75 1.1875 C-24.985885 3.0453443 -26.79246683 4.81220844 -28.625 8.9375 C-28.99625 10.01 -29.3675 11.0825 -29.75 12.1875 C-31.07 11.5275 -32.39 10.8675 -33.75 10.1875 C-33.75 9.5275 -33.75 8.8675 -33.75 8.1875 C-33.09 8.1875 -32.43 8.1875 -31.75 8.1875 C-31.75 7.135625 -31.75 6.08375 -31.75 5 C-30.66138327 0.84964871 -30.34780902 0.47004244 -26.9375 -1.6875 C-17.77411952 -6.8795092 -8.66243201 -5.70933019 0 0 Z " fill="#201F3D" transform="translate(203.75,362.8125)"/>
<path d="M0 0 C4.12737016 1.81025007 6.01867362 3.56165045 7.875 7.5625 C9 11 9 11 9 14 C-1.23 14 -11.46 14 -22 14 C-20.87387687 6.1171381 -20.87387687 6.1171381 -17.5625 3.625 C-16.94503906 3.14289063 -16.32757813 2.66078125 -15.69140625 2.1640625 C-10.94799423 -1.10045663 -5.56510296 -0.50922511 0 0 Z " fill="#F6EAF4" transform="translate(320,363)"/>
<path d="M0 0 C4.48141313 2.12277464 7.00031308 4.44515757 9 9 C9 10.65 9 12.3 9 14 C-1.23 14 -11.46 14 -22 14 C-18.50018629 1.75065202 -12.08926755 -1.29527867 0 0 Z " fill="#F6EAF4" transform="translate(195,363)"/>
<path d="M0 0 C1.21236328 0.01353516 1.21236328 0.01353516 2.44921875 0.02734375 C3.37154297 0.04474609 3.37154297 0.04474609 4.3125 0.0625 C4.3125 1.7125 4.3125 3.3625 4.3125 5.0625 C3.51585937 5.12566406 2.71921875 5.18882812 1.8984375 5.25390625 C0.83882813 5.37636719 -0.22078125 5.49882812 -1.3125 5.625 C-2.35664063 5.72941406 -3.40078125 5.83382813 -4.4765625 5.94140625 C-8.20209933 7.24217154 -10.09627999 8.46228255 -12.51806641 11.55493164 C-15.16393394 17.22835659 -14.57637708 23.8475973 -14.5625 30 C-14.58064676 31.46162437 -14.60145566 32.92321824 -14.625 34.38476562 C-14.67658609 37.94418021 -14.6919494 41.50266331 -14.6875 45.0625 C-16.3375 45.0625 -17.9875 45.0625 -19.6875 45.0625 C-19.6875 30.5425 -19.6875 16.0225 -19.6875 1.0625 C-18.0375 1.0625 -16.3875 1.0625 -14.6875 1.0625 C-14.3575 2.7125 -14.0275 4.3625 -13.6875 6.0625 C-12.759375 5.258125 -11.83125 4.45375 -10.875 3.625 C-7.385387 0.60066873 -4.57664052 -0.06632812 0 0 Z " fill="#1D1E3A" transform="translate(361.6875,357.9375)"/>
<path d="M0 0 C0 1.65 0 3.3 0 5 C-0.87011719 5.03867187 -0.87011719 5.03867187 -1.7578125 5.078125 C-8.08632338 5.53762084 -12.10018326 6.99998017 -16.63208008 11.68847656 C-18.53345045 14.90142939 -18.43553319 17.45401986 -18.51171875 21.171875 C-18.53864555 22.1955014 -18.53864555 22.1955014 -18.56611633 23.23980713 C-18.62010383 25.4098094 -18.65407583 27.57959325 -18.6875 29.75 C-18.72068352 31.22529074 -18.75517415 32.70055269 -18.79101562 34.17578125 C-18.87582158 37.78364427 -18.94268837 41.39158362 -19 45 C-20.65 45 -22.3 45 -24 45 C-24 30.48 -24 15.96 -24 1 C-22.35 1 -20.7 1 -19 1 C-18.67 2.65 -18.34 4.3 -18 6 C-17.0925 5.195625 -16.185 4.39125 -15.25 3.5625 C-10.32711604 -0.49029284 -6.20728696 -0.10345478 0 0 Z " fill="#1B1A38" transform="translate(166,358)"/>
<path d="M0 0 C6.41024878 -0.3546654 12.40872027 -0.51187818 18 3 C21.52262664 6.27686199 24.46663766 9.39991299 26 14 C26 16.97 26 19.94 26 23 C13.79 23 1.58 23 -11 23 C-10.67 21.68 -10.34 20.36 -10 19 C0.23 19 10.46 19 21 19 C18.13038948 9.74004049 18.13038948 9.74004049 14.73828125 6.91796875 C11.22893107 5.74151042 7.85587333 5.43536418 4.1875 5.3125 C3.14819336 5.26125977 3.14819336 5.26125977 2.08789062 5.20898438 C0.39247151 5.12713656 -1.30373458 5.06187635 -3 5 C-3 4.34 -3 3.68 -3 3 C-2.34 3 -1.68 3 -1 3 C-0.67 2.01 -0.34 1.02 0 0 Z " fill="#201F3C" transform="translate(308,358)"/>
<path d="M0 0 C5.91042891 0.36186299 9.67610927 1.88839331 14 6 C17.59862427 10.99164011 17.68695535 16.06207091 17 22 C15.76159848 27.05920619 13.39098523 30.17722378 9 33 C5.24114575 34.97339848 3.08068161 35.16590903 -1 34 C-1.33 32.68 -1.66 31.36 -2 30 C-1.22914062 29.85304688 -0.45828125 29.70609375 0.3359375 29.5546875 C3.34184688 28.88241471 6.14129683 28.15040097 9 27 C11.49434861 22.93513559 11.42723622 18.69959847 11 14 C9.50202192 9.97418391 7.5199482 8.56419059 3.8125 6.6875 C2.5479371 6.1110416 1.278954 5.54378329 0 5 C0.66 4.67 1.32 4.34 2 4 C2 3.34 2 2.68 2 2 C1.34 1.34 0.68 0.68 0 0 Z " fill="#22213E" transform="translate(117,340)"/>
<path d="M0 0 C5.13890667 -0.10632221 8.71218183 -0.07455938 12.76953125 3.31640625 C15.91152134 6.36067894 16.61617291 8.61625967 16.75805664 13.05737305 C16.75789865 14.52263324 16.75226944 15.98789949 16.7421875 17.453125 C16.74077255 18.22574173 16.7393576 18.99835846 16.73789978 19.79438782 C16.73230591 22.26010014 16.71975458 24.7257214 16.70703125 27.19140625 C16.70201546 28.86393098 16.69745269 30.53645713 16.69335938 32.20898438 C16.68233849 36.30732671 16.66507809 40.40560104 16.64453125 44.50390625 C15.32453125 44.50390625 14.00453125 44.50390625 12.64453125 44.50390625 C12.62994873 43.59624512 12.61536621 42.68858398 12.6003418 41.75341797 C12.53904976 38.36481315 12.46485549 34.97698936 12.38208008 31.58886719 C12.3489599 30.12640917 12.3208882 28.6638273 12.2980957 27.20117188 C12.2643095 25.09061222 12.21198745 22.98117439 12.15625 20.87109375 C12.13006592 19.60378418 12.10388184 18.33647461 12.0769043 17.03076172 C11.611216 13.23215465 10.61715991 10.76358629 8.64453125 7.50390625 C5.93246058 5.63235335 3.09947406 5.03874742 -0.10546875 4.37890625 C-0.9046875 4.21132813 -1.70390625 4.04375 -2.52734375 3.87109375 C-3.130625 3.74992187 -3.73390625 3.62875 -4.35546875 3.50390625 C-2.35546875 0.50390625 -2.35546875 0.50390625 0 0 Z " fill="#141532" transform="translate(267.35546875,358.49609375)"/>
<path d="M0 0 C0 0.66 0 1.32 0 2 C-0.33 2.33 -0.66 2.66 -1 3 C-0.34 3.66 0.32 4.32 1 5 C0.071875 5.5775 -0.85625 6.155 -1.8125 6.75 C-8.38061125 11.38631382 -8.06940625 13.31232813 -10 22 C2.21 22 14.42 22 27 22 C27 22.33 27 22.66 27 23 C14.79 23 2.58 23 -10 23 C-10.33 24.32 -10.66 25.64 -11 27 C-12.32 26.67 -13.64 26.34 -15 26 C-15.47703124 18.79152794 -15.42951089 12.96019814 -11 7 C-4.16071429 0 -4.16071429 0 0 0 Z " fill="#413F58" transform="translate(307,359)"/>
<path d="M0 0 C0 2.64 0 5.28 0 8 C-11.88 8 -23.76 8 -36 8 C-36 6.68 -36 5.36 -36 4 C-25.44 4 -14.88 4 -4 4 C-4 3.01 -4 2.02 -4 1 C-2 0 -2 0 0 0 Z " fill="#111233" transform="translate(209,373)"/>
<path d="M0 0 C0.66 0.33 1.32 0.66 2 1 C2 2.65 2 4.3 2 6 C-10.21 6 -22.42 6 -35 6 C-34.67 4.68 -34.34 3.36 -34 2 C-32.56164795 1.96241577 -32.56164795 1.96241577 -31.09423828 1.92407227 C-27.54201523 1.8300138 -23.98998844 1.72978942 -20.43798828 1.62768555 C-18.89962347 1.58433074 -17.36121037 1.54265605 -15.82275391 1.50268555 C-13.6134586 1.44499602 -11.40440652 1.38129821 -9.1953125 1.31640625 C-8.50567413 1.29969376 -7.81603577 1.28298126 -7.10549927 1.26576233 C-3.42885736 1.19193005 -3.42885736 1.19193005 0 0 Z " fill="#111232" transform="translate(332,375)"/>
<path d="M0 0 C0.33 1.65 0.66 3.3 1 5 C-4.68026065 7.96922716 -8.60033667 9.14099916 -15 9.125 C-16.03125 9.12757813 -17.0625 9.13015625 -18.125 9.1328125 C-20.59657009 9.01863671 -22.6442958 8.71350656 -25 8 C-25.33 6.68 -25.66 5.36 -26 4 C-20.99175943 2.78531479 -16.27309518 3.05457332 -11.15625 3.2578125 C-6.74350483 2.89736549 -4.35066533 0 0 0 Z " fill="#24243D" transform="translate(205,395)"/>
<path d="M0 0 C1.98925781 1.0715332 1.98925781 1.0715332 4 3 C4.36230469 6.09448242 4.36230469 6.09448242 4.171875 9.85546875 C4.14401917 10.51710526 4.11616333 11.17874176 4.08746338 11.86042786 C3.99418732 13.9708689 3.8724864 16.07857239 3.75 18.1875 C3.68171526 19.61905226 3.61528676 21.05069435 3.55078125 22.48242188 C3.38870308 25.98957891 3.20110797 29.49483994 3 33 C1.68 33 0.36 33 -1 33 C-1.02465392 28.46102295 -1.04283789 23.92208457 -1.05493164 19.38305664 C-1.0599714 17.83780234 -1.0668032 16.29255284 -1.07543945 14.74731445 C-1.08752076 12.53074971 -1.09323173 10.31424782 -1.09765625 8.09765625 C-1.10281754 7.4028566 -1.10797882 6.70805695 -1.11329651 5.99220276 C-1.11349277 4.3277067 -1.06189129 2.66334501 -1 1 C-0.67 0.67 -0.34 0.34 0 0 Z " fill="#121332" transform="translate(219,370)"/>
<path d="M0 0 C1.48168945 1.1262207 1.48168945 1.1262207 3 3 C3.34057617 5.72729492 3.34057617 5.72729492 3.29296875 8.98046875 C3.28330078 10.14384766 3.27363281 11.30722656 3.26367188 12.50585938 C3.23853516 13.72080078 3.21339844 14.93574219 3.1875 16.1875 C3.17396484 17.41404297 3.16042969 18.64058594 3.14648438 19.90429688 C3.11108741 22.93663664 3.0617076 25.96809996 3 29 C1.68 29 0.36 29 -1 29 C-1.02465881 25.03069011 -1.04284023 21.06140966 -1.05493164 17.09204102 C-1.05997057 15.74079614 -1.06680177 14.38955674 -1.07543945 13.03833008 C-1.08752419 11.09979566 -1.09269828 9.161222 -1.09765625 7.22265625 C-1.10289307 6.05484619 -1.10812988 4.88703613 -1.11352539 3.68383789 C-1 1 -1 1 0 0 Z " fill="#131433" transform="translate(250,374)"/>
<path d="M0 0 C1.65 0 3.3 0 5 0 C5.33 1.98 5.66 3.96 6 6 C6.99 6 7.98 6 9 6 C8.01 8.31 7.02 10.62 6 13 C4.68 12.67 3.36 12.34 2 12 C1.67 22.56 1.34 33.12 1 44 C0.67 44 0.34 44 0 44 C0 29.48 0 14.96 0 0 Z " fill="#38374F" transform="translate(217,359)"/>
<path d="M0 0 C0 1.65 0 3.3 0 5 C-0.87011719 5.03867187 -0.87011719 5.03867187 -1.7578125 5.078125 C-7.27281992 5.47855458 -10.54232569 6.49754161 -15 10 C-15.99 10.66 -16.98 11.32 -18 12 C-18.33 11.34 -18.66 10.68 -19 10 C-18.67 9.34 -18.34 8.68 -18 8 C-18.66 8 -19.32 8 -20 8 C-20 6.02 -20 4.04 -20 2 C-21.32 1.67 -22.64 1.34 -24 1 C-22.35 1 -20.7 1 -19 1 C-18.67 2.65 -18.34 4.3 -18 6 C-17.0925 5.195625 -16.185 4.39125 -15.25 3.5625 C-10.32711604 -0.49029284 -6.20728696 -0.10345478 0 0 Z " fill="#1D1D37" transform="translate(166,358)"/>
<path d="M0 0 C0.33 0.99 0.66 1.98 1 3 C0.67 3.66 0.34 4.32 0 5 C-0.66 5 -1.32 5 -2 5 C-1.525625 5.556875 -1.05125 6.11375 -0.5625 6.6875 C1 9 1 9 2 14 C13.55 14.33 25.1 14.66 37 15 C37 12.36 37 9.72 37 7 C37.33 7 37.66 7 38 7 C38 9.97 38 12.94 38 16 C25.79 16 13.58 16 1 16 C0.67 17.32 0.34 18.64 0 20 C-0.309375 19.05125 -0.61875 18.1025 -0.9375 17.125 C-1.87394742 14.13919592 -1.87394742 14.13919592 -3 12 C-3.33 14.64 -3.66 17.28 -4 20 C-4.33 20 -4.66 20 -5 20 C-5.44158619 11.87154306 -4.57292936 6.85939403 0 0 Z " fill="#57546B" transform="translate(172,366)"/>
<path d="M0 0 C0.6875 2.0625 0.6875 2.0625 1 4 C-0.51980469 4.03867187 -0.51980469 4.03867187 -2.0703125 4.078125 C-3.42191597 4.13444181 -4.77347681 4.19178833 -6.125 4.25 C-6.79015625 4.26417969 -7.4553125 4.27835937 -8.140625 4.29296875 C-13.36096332 4.54886769 -16.00415538 5.88797148 -20 9 C-20.33 7.35 -20.66 5.7 -21 4 C-14.36196126 -1.19176215 -8.1416669 -2.71388897 0 0 Z " fill="#2A2943" transform="translate(245,359)"/>
<path d="M0 0 C5.91042891 0.36186299 9.67610927 1.88839331 14 6 C17.65336025 11.06756422 17.31993836 16.00411822 17 22 C16.67 22 16.34 22 16 22 C15.8046875 20.01432292 15.609375 18.02864583 15.4140625 16.04296875 C15.07334609 13.70011858 15.07334609 13.70011858 13 11 C12.01 12.485 12.01 12.485 11 14 C10.67 13.2575 10.34 12.515 10 11.75 C7.30745156 8.04774589 4.13732658 6.75910085 0 5 C0.66 4.67 1.32 4.34 2 4 C2 3.34 2 2.68 2 2 C1.34 1.34 0.68 0.68 0 0 Z " fill="#2C2B45" transform="translate(117,340)"/>
<path d="M0 0 C0 1.65 0 3.3 0 5 C-0.80824219 5.09796875 -1.61648438 5.1959375 -2.44921875 5.296875 C-10.53689391 6.30423143 -10.53689391 6.30423143 -17 11 C-17 10.01 -17 9.02 -17 8 C-17.33 7.67 -17.66 7.34 -18 7 C-12.93288404 -0.13149654 -8.22362828 -0.32249523 0 0 Z " fill="#292943" transform="translate(366,358)"/>
<path d="M0 0 C10.89 0 21.78 0 33 0 C31 2 31 2 28.11083984 2.22705078 C26.90637207 2.21657715 25.7019043 2.20610352 24.4609375 2.1953125 C22.50800781 2.18564453 22.50800781 2.18564453 20.515625 2.17578125 C19.13541405 2.15906929 17.75520571 2.14213939 16.375 2.125 C14.98698548 2.11497006 13.59896411 2.10584423 12.2109375 2.09765625 C8.80711974 2.07401863 5.40364494 2.04106867 2 2 C1.67 3.32 1.34 4.64 1 6 C0.67 4.02 0.34 2.04 0 0 Z " fill="#6F9EED" transform="translate(143,153)"/>
<path d="M0 0 C3.69102332 -0.65032316 7.2948884 -0.51991965 11 0 C13.6875 2 13.6875 2 15 4 C13.68 4.99 12.36 5.98 11 7 C10.43796875 6.69320313 9.8759375 6.38640625 9.296875 6.0703125 C6.93653066 4.97042415 4.79534438 4.39904149 2.25 3.875 C1.45078125 3.70742188 0.6515625 3.53984375 -0.171875 3.3671875 C-0.77515625 3.24601562 -1.3784375 3.12484375 -2 3 C-1.34 2.01 -0.68 1.02 0 0 Z " fill="#131431" transform="translate(265,359)"/>
<path d="M0 0 C0.33 1.65 0.66 3.3 1 5 C-4.27139553 8.06476484 -4.27139553 8.06476484 -7.8125 7.75 C-10 7 -10 7 -11 6 C-13.32817964 5.63239269 -15.6618385 5.29758419 -18 5 C-18 4.67 -18 4.34 -18 4 C-17.33613281 3.96261719 -16.67226562 3.92523438 -15.98828125 3.88671875 C-10.19802141 3.45561911 -5.25613241 0 0 0 Z " fill="#1B1A39" transform="translate(205,395)"/>
<path d="M0 0 C0.33 0 0.66 0 1 0 C1 6.93 1 13.86 1 21 C0.67 21 0.34 21 0 21 C-0.33 16.71 -0.66 12.42 -1 8 C-1.66 8 -2.32 8 -3 8 C-3.12375 8.721875 -3.2475 9.44375 -3.375 10.1875 C-3.9904931 12.95721894 -4.88444374 15.3970354 -6 18 C-6.66 18 -7.32 18 -8 18 C-8.12375 18.639375 -8.2475 19.27875 -8.375 19.9375 C-8.58125 20.618125 -8.7875 21.29875 -9 22 C-9.66 22.33 -10.32 22.66 -11 23 C-9.44347945 17.6462535 -7.0182491 12.99849053 -4.375 8.125 C-3.95476562 7.34125 -3.53453125 6.5575 -3.1015625 5.75 C-2.0718978 3.83107943 -1.03652433 1.91522397 0 0 Z " fill="#74A1F3" transform="translate(289,84)"/>
<path d="M0 0 C4.29 1.65 8.58 3.3 13 5 C12.67 6.32 12.34 7.64 12 9 C8.12808922 9.36875341 6.14973053 9.07486527 2.625 7.3125 C1.325625 6.1678125 1.325625 6.1678125 0 5 C0 3.35 0 1.7 0 0 Z " fill="#25243F" transform="translate(299,394)"/>
<path d="M0 0 C-0.3125 1.875 -0.3125 1.875 -1 4 C-4.52679099 6.35119399 -6.02879485 6.21443452 -10.1875 6.125 C-11.27417969 6.10695313 -12.36085938 6.08890625 -13.48046875 6.0703125 C-14.72763672 6.03550781 -14.72763672 6.03550781 -16 6 C-16 5.01 -16 4.02 -16 3 C-14.80375 2.87625 -13.6075 2.7525 -12.375 2.625 C-8.16902988 2.11043983 -4.14636265 0 0 0 Z " fill="#1C1B38" transform="translate(397,397)"/>
<path d="M0 0 C0 0.99 0 1.98 0 3 C-1.59915881 3.69906942 -3.20455045 4.38389468 -4.8125 5.0625 C-5.70582031 5.44535156 -6.59914063 5.82820313 -7.51953125 6.22265625 C-10 7 -10 7 -13 6 C-12.67012361 3.52592708 -12.42027913 2.3362233 -10.4375 0.75 C-6.89085382 -0.34127575 -3.70471601 -0.12349053 0 0 Z " fill="#21213E" transform="translate(385,359)"/>
<path d="M0 0 C3.57011026 3.732388 4.10913442 8.0949989 5 13 C4.34 13 3.68 13 3 13 C2.67 13.99 2.34 14.98 2 16 C0 15 0 15 -1 12 C-1.09338218 10.12686336 -1.12994843 8.25045638 -1.125 6.375 C-1.12757813 5.39273437 -1.13015625 4.41046875 -1.1328125 3.3984375 C-1 1 -1 1 0 0 Z " fill="#1C1A3A" transform="translate(169,377)"/>
<path d="M0 0 C1.32 0 2.64 0 4 0 C4 1.98 4 3.96 4 6 C4.66 6 5.32 6 6 6 C6 7.98 6 9.96 6 12 C5.01 12 4.02 12 3 12 C3 11.34 3 10.68 3 10 C2.01 10.33 1.02 10.66 0 11 C0 7.37 0 3.74 0 0 Z " fill="#131332" transform="translate(142,360)"/>
<path d="M0 0 C0.66 0.33 1.32 0.66 2 1 C0.7934375 1.5878125 0.7934375 1.5878125 -0.4375 2.1875 C-3.17773812 3.7207131 -3.17773812 3.7207131 -3.625 6.25 C-3.74875 7.1575 -3.8725 8.065 -4 9 C-4.90638461 11.38235516 -5.95132752 13.67468277 -7 16 C-8.32 15.34 -9.64 14.68 -11 14 C-11 13.34 -11 12.68 -11 12 C-10.34 12 -9.68 12 -9 12 C-9 10.948125 -9 9.89625 -9 8.8125 C-7.90344274 4.63187544 -7.5034114 4.20890334 -4.0625 2 C-1.91015625 0.75 -1.91015625 0.75 0 0 Z " fill="#262640" transform="translate(181,359)"/>
<path d="M0 0 C5.77759884 -0.12036664 11.27959989 0.1679418 17 1 C15.68 1.33 14.36 1.66 13 2 C13 2.99 13 3.98 13 5 C11.125 5.625 11.125 5.625 9 6 C8.34 5.34 7.68 4.68 7 4 C4.67724823 3.59952556 2.34260643 3.2602896 0 3 C0 2.01 0 1.02 0 0 Z " fill="#6A9FF3" transform="translate(275,153)"/>
<path d="M0 0 C2.7972908 2.06756277 3.02692273 3.14440371 3.6875 6.6875 C3.790625 7.780625 3.89375 8.87375 4 10 C2.35 10.33 0.7 10.66 -1 11 C-1.66 8.03 -2.32 5.06 -3 2 C-2.01 1.34 -1.02 0.68 0 0 Z " fill="#272743" transform="translate(330,366)"/>
<path d="M0 0 C4.95 0 9.9 0 15 0 C14.01 0.495 14.01 0.495 13 1 C13.33 1.99 13.66 2.98 14 4 C13 5 13 5 10.71484375 5.09765625 C9.34005859 5.08025391 9.34005859 5.08025391 7.9375 5.0625 C7.01839844 5.05347656 6.09929687 5.04445313 5.15234375 5.03515625 C4.44207031 5.02355469 3.73179687 5.01195312 3 5 C3.99 4.67 4.98 4.34 6 4 C6 3.01 6 2.02 6 1 C4.02 1 2.04 1 0 1 C0 0.67 0 0.34 0 0 Z " fill="#31304A" transform="translate(379,358)"/>
<path d="M0 0 C0.309375 0.639375 0.61875 1.27875 0.9375 1.9375 C1.8345163 3.93610821 1.8345163 3.93610821 3 5 C3.07179964 6.51928038 3.08392007 8.04167482 3.0625 9.5625 C3.05347656 10.38878906 3.04445312 11.21507812 3.03515625 12.06640625 C3.01775391 13.02353516 3.01775391 13.02353516 3 14 C1.68 14 0.36 14 -1 14 C-1.02694851 12.04174127 -1.04637218 10.08337774 -1.0625 8.125 C-1.07410156 7.03445313 -1.08570313 5.94390625 -1.09765625 4.8203125 C-1 2 -1 2 0 0 Z " fill="#111234" transform="translate(130,349)"/>
<path d="M0 0 C0.99 0.33 1.98 0.66 3 1 C3.33 1.99 3.66 2.98 4 4 C1.44931155 6.35448165 0.28982642 6.98327924 -3.25 7.1875 C-4.1575 7.125625 -5.065 7.06375 -6 7 C-4.19587357 3.73539027 -3.16605307 2.11070205 0 0 Z " fill="#141435" transform="translate(327,395)"/>
<path d="M0 0 C1.65 0 3.3 0 5 0 C5.33 1.65 5.66 3.3 6 5 C6.66 4.34 7.32 3.68 8 3 C8.99 3.33 9.98 3.66 11 4 C10.60196439 6.88575819 10.20990931 7.82189513 7.9375 9.75 C6.9784375 10.36875 6.9784375 10.36875 6 11 C5.67 10.34 5.34 9.68 5 9 C5.33 8.34 5.66 7.68 6 7 C5.34 7 4.68 7 4 7 C4 5.02 4 3.04 4 1 C2.68 0.67 1.36 0.34 0 0 Z " fill="#2E2C46" transform="translate(142,359)"/>
<path d="M0 0 C3.3 0 6.6 0 10 0 C9.67 1.32 9.34 2.64 9 4 C6.36 4 3.72 4 1 4 C0.67 2.68 0.34 1.36 0 0 Z " fill="#181A37" transform="translate(390,377)"/>
<path d="M0 0 C3.63 0 7.26 0 11 0 C11.33 1.32 11.66 2.64 12 4 C3.42857143 4.28571429 3.42857143 4.28571429 0 2 C0 1.34 0 0.68 0 0 Z " fill="#141334" transform="translate(234,359)"/>
<path d="M0 0 C0.66 0.33 1.32 0.66 2 1 C2 4 2 4 -0.375 6.625 C-3 9 -3 9 -5 10 C-5 9.01 -5 8.02 -5 7 C-5.33 6.67 -5.66 6.34 -6 6 C-2.25 1.125 -2.25 1.125 0 0 Z " fill="#2C2B46" transform="translate(354,359)"/>
<path d="M0 0 C0 0.66 0 1.32 0 2 C-0.33 2.33 -0.66 2.66 -1 3 C-0.34 3.66 0.32 4.32 1 5 C-1.31 6.32 -3.62 7.64 -6 9 C-6 7.68 -6 6.36 -6 5 C-6.66 4.67 -7.32 4.34 -8 4 C-2.25 0 -2.25 0 0 0 Z " fill="#2E2D46" transform="translate(307,359)"/>
<path d="M0 0 C1.83163866 3.38148676 3.0244087 6.83857179 4.1875 10.5 C4.55230469 11.6240625 4.91710937 12.748125 5.29296875 13.90625 C5.96644123 16.85315722 6.06533987 18.23147346 5 21 C4.49440092 19.56445975 3.9957251 18.1264798 3.5 16.6875 C3.2215625 15.88699219 2.943125 15.08648437 2.65625 14.26171875 C2 12 2 12 2 9 C1.34 9 0.68 9 0 9 C-1.15941038 5.52176885 -0.70820884 3.54104422 0 0 Z " fill="#7AA6F1" transform="translate(140,174)"/>
<path d="M0 0 C0 0.33 0 0.66 0 1 C-2.64 1.33 -5.28 1.66 -8 2 C-8 2.99 -8 3.98 -8 5 C-10.31 5 -12.62 5 -15 5 C-15 4.01 -15 3.02 -15 2 C-10.13948404 -0.59227518 -5.34728867 -0.18689553 0 0 Z " fill="#2F2D45" transform="translate(273,358)"/>
<path d="M0 0 C0.33 0.99 0.66 1.98 1 3 C2.32 3 3.64 3 5 3 C5 2.34 5 1.68 5 1 C7.31 1.33 9.62 1.66 12 2 C9.14521674 3.90318884 7.58058692 4.4619099 4.3125 5.125 C3.50425781 5.29257813 2.69601563 5.46015625 1.86328125 5.6328125 C1.24839844 5.75398437 0.63351563 5.87515625 0 6 C0 4.02 0 2.04 0 0 Z " fill="#7BA5EF" transform="translate(157,241)"/>
<path d="M0 0 C2 1.375 2 1.375 4 3 C4 3.66 4 4.32 4 5 C3.01 5 2.02 5 1 5 C0.67 6.32 0.34 7.64 0 9 C-1.32 7.02 -2.64 5.04 -4 3 C-3.34 2.67 -2.68 2.34 -2 2 C-1.34 2.33 -0.68 2.66 0 3 C0 2.01 0 1.02 0 0 Z " fill="#262540" transform="translate(399,361)"/>
<path d="M0 0 C2.31 0 4.62 0 7 0 C7.33 1.32 7.66 2.64 8 4 C4.625 4.125 4.625 4.125 1 4 C0.34 3.34 -0.32 2.68 -1 2 C-0.67 1.34 -0.34 0.68 0 0 Z " fill="#151533" transform="translate(191,359)"/>
<path d="M0 0 C0.33 0 0.66 0 1 0 C1 6.93 1 13.86 1 21 C0.67 21 0.34 21 0 21 C-0.06058594 20.03578125 -0.12117188 19.0715625 -0.18359375 18.078125 C-0.26738281 16.81484375 -0.35117187 15.5515625 -0.4375 14.25 C-0.51871094 12.99703125 -0.59992188 11.7440625 -0.68359375 10.453125 C-0.87421405 7.1631908 -0.87421405 7.1631908 -1.66015625 4.734375 C-2 3 -2 3 0 0 Z " fill="#83A8EE" transform="translate(289,84)"/>
<path d="M0 0 C1.27875 0.103125 2.5575 0.20625 3.875 0.3125 C4.95394531 0.39951172 4.95394531 0.39951172 6.0546875 0.48828125 C8 1 8 1 10 4 C8.54207116 4.05399736 7.08357288 4.09279177 5.625 4.125 C4.81289062 4.14820313 4.00078125 4.17140625 3.1640625 4.1953125 C1 4 1 4 -1 2 C-0.67 1.34 -0.34 0.68 0 0 Z " fill="#121233" transform="translate(186,399)"/>
<path d="M0 0 C1.32 0 2.64 0 4 0 C3.6875 3.375 3.6875 3.375 3 7 C2.01 7.66 1.02 8.32 0 9 C0 6.03 0 3.06 0 0 Z " fill="#191938" transform="translate(400,366)"/>
<path d="M0 0 C-0.33 1.65 -0.66 3.3 -1 5 C-2.32 5.33 -3.64 5.66 -5 6 C-5.66 4.68 -6.32 3.36 -7 2 C-4 0 -4 0 0 0 Z " fill="#232342" transform="translate(158,359)"/>
<path d="M0 0 C0.598125 0.350625 1.19625 0.70125 1.8125 1.0625 C0.4925 2.3825 -0.8275 3.7025 -2.1875 5.0625 C-3.5075 4.0725 -4.8275 3.0825 -6.1875 2.0625 C-4.66896708 -0.97456585 -3.05066334 -1.30742714 0 0 Z " fill="#23213C" transform="translate(278.1875,360.9375)"/>
<path d="M0 0 C1.43088528 2.86177057 0.59991697 4.93375773 0 8 C-2.31 8.33 -4.62 8.66 -7 9 C-6.02180976 7.68677212 -5.0424189 6.37443848 -4.0625 5.0625 C-3.51722656 4.33160156 -2.97195312 3.60070312 -2.41015625 2.84765625 C-1 1 -1 1 0 0 Z " fill="#70A0F5" transform="translate(223,108)"/>
<path d="M0 0 C1.65 1.32 3.3 2.64 5 4 C4.01 4.495 4.01 4.495 3 5 C3 5.99 3 6.98 3 8 C-1.875 6.25 -1.875 6.25 -3 4 C-2.01 3.67 -1.02 3.34 0 3 C0 2.01 0 1.02 0 0 Z " fill="#383850" transform="translate(177,394)"/>
<path d="M0 0 C1.5625 1.75 1.5625 1.75 3 4 C2.75203633 6.16968209 2.55766393 7.44233607 1 9 C0.01 9.495 0.01 9.495 -1 10 C-1.02689216 8.52093108 -1.04634621 7.04172517 -1.0625 5.5625 C-1.07410156 4.73878906 -1.08570313 3.91507812 -1.09765625 3.06640625 C-1 1 -1 1 0 0 Z " fill="#111030" transform="translate(169,377)"/>
<path d="M0 0 C1.33333333 0.66666667 2.66666667 1.33333333 4 2 C4 3.65 4 5.3 4 7 C3.01 7.495 3.01 7.495 2 8 C1.34 7.67 0.68 7.34 0 7 C0 4.69 0 2.38 0 0 Z " fill="#11112E" transform="translate(292,378)"/>
<path d="M0 0 C2.0625 0.4375 2.0625 0.4375 4 1 C4 2.32 4 3.64 4 5 C3.01 5.33 2.02 5.66 1 6 C0.34 4.35 -0.32 2.7 -1 1 C-0.67 0.67 -0.34 0.34 0 0 Z " fill="#1A1936" transform="translate(325,363)"/>
<path d="M0 0 C0.99 0.33 1.98 0.66 3 1 C2.34 2.32 1.68 3.64 1 5 C1.66 5.66 2.32 6.32 3 7 C-0.90838866 7 -2.11594107 5.49432124 -5 3 C-3.35 2.67 -1.7 2.34 0 2 C0 1.34 0 0.68 0 0 Z " fill="#393651" transform="translate(245,360)"/>
<path d="M0 0 C2.31 0 4.62 0 7 0 C7 0.99 7 1.98 7 3 C4.36 3 1.72 3 -1 3 C-0.67 2.01 -0.34 1.02 0 0 Z " fill="#111135" transform="translate(358,359)"/>
<path d="M0 0 C2.97 0 5.94 0 9 0 C8.01 0.33 7.02 0.66 6 1 C6.33 2.32 6.66 3.64 7 5 C5.35 5 3.7 5 2 5 C2 4.01 2 3.02 2 2 C1.34 1.34 0.68 0.68 0 0 Z " fill="#2E2D47" transform="translate(185,358)"/>
<path d="M0 0 C1.2065625 0.0309375 1.2065625 0.0309375 2.4375 0.0625 C2.4375 0.7225 2.4375 1.3825 2.4375 2.0625 C4.4175 2.0625 6.3975 2.0625 8.4375 2.0625 C8.4375 2.3925 8.4375 2.7225 8.4375 3.0625 C4.8075 3.3925 1.1775 3.7225 -2.5625 4.0625 C-2.8925 3.0725 -3.2225 2.0825 -3.5625 1.0625 C-2.5625 0.0625 -2.5625 0.0625 0 0 Z " fill="#5F9AF4" transform="translate(278.5625,225.9375)"/>
<path d="M0 0 C3.375 -0.1875 3.375 -0.1875 7 0 C7.66 0.99 8.32 1.98 9 3 C6.03 3 3.06 3 0 3 C0 2.01 0 1.02 0 0 Z " fill="#111231" transform="translate(381,400)"/>
<path d="M0 0 C0.33 1.65 0.66 3.3 1 5 C0.01 5.495 0.01 5.495 -1 6 C-1 5.34 -1 4.68 -1 4 C-2.65 3.67 -4.3 3.34 -6 3 C-3.375 0 -3.375 0 0 0 Z " fill="#39374F" transform="translate(205,395)"/>
<path d="M0 0 C1.32 1.65 2.64 3.3 4 5 C2.66666667 6.33333333 1.33333333 7.66666667 0 9 C-0.99 7.68 -1.98 6.36 -3 5 C-2.34 5 -1.68 5 -1 5 C-0.67 3.35 -0.34 1.7 0 0 Z " fill="#312F4A" transform="translate(298,389)"/>
<path d="M0 0 C0.66 0.66 1.32 1.32 2 2 C1.01 4.64 0.02 7.28 -1 10 C-2.32 9.34 -3.64 8.68 -5 8 C-5 7.34 -5 6.68 -5 6 C-3.35 5.34 -1.7 4.68 0 4 C0 2.68 0 1.36 0 0 Z " fill="#211F3E" transform="translate(254,367)"/>
<path d="M0 0 C-1.485 1.485 -1.485 1.485 -3 3 C-2.34 3.66 -1.68 4.32 -1 5 C-2.65 4.67 -4.3 4.34 -6 4 C-6.33 2.68 -6.66 1.36 -7 0 C-2.25 -1.125 -2.25 -1.125 0 0 Z " fill="#37344F" transform="translate(122,370)"/>
<path d="M0 0 C1.4540625 0.0309375 1.4540625 0.0309375 2.9375 0.0625 C2.9375 1.0525 2.9375 2.0425 2.9375 3.0625 C0.9575 3.3925 -1.0225 3.7225 -3.0625 4.0625 C-3.3925 3.0725 -3.7225 2.0825 -4.0625 1.0625 C-3.0625 0.0625 -3.0625 0.0625 0 0 Z " fill="#12132F" transform="translate(382.0625,358.9375)"/>
<path d="M0 0 C2.64 0 5.28 0 8 0 C7.45276317 3.37462715 6.9451 5.08235 5 8 C5 5.69 5 3.38 5 1 C3.35 1 1.7 1 0 1 C0 0.67 0 0.34 0 0 Z " fill="#80A4ED" transform="translate(369,185)"/>
<path d="M0 0 C1.98 0 3.96 0 6 0 C6.66 1.98 7.32 3.96 8 6 C7.34 5.67 6.68 5.34 6 5 C6 4.01 6 3.02 6 2 C4.35 2.33 2.7 2.66 1 3 C0.67 2.01 0.34 1.02 0 0 Z " fill="#679CEF" transform="translate(291,155)"/>
<path d="M0 0 C1.4540625 0.0309375 1.4540625 0.0309375 2.9375 0.0625 C2.6075 1.3825 2.2775 2.7025 1.9375 4.0625 C0.6175 4.0625 -0.7025 4.0625 -2.0625 4.0625 C-2.0625 3.4025 -2.0625 2.7425 -2.0625 2.0625 C-2.7225 1.7325 -3.3825 1.4025 -4.0625 1.0625 C-3.0625 0.0625 -3.0625 0.0625 0 0 Z " fill="#161633" transform="translate(309.0625,398.9375)"/>
<path d="M0 0 C2.64 0 5.28 0 8 0 C8.33 1.32 8.66 2.64 9 4 C7.68 4 6.36 4 5 4 C4.67 3.34 4.34 2.68 4 2 C1.98330173 0.86649466 1.98330173 0.86649466 0 0 Z " fill="#31304B" transform="translate(382,377)"/>
<path d="M0 0 C2.97 0 5.94 0 9 0 C9.33 0.99 9.66 1.98 10 3 C10.99 3.33 11.98 3.66 13 4 C8.125 3.125 8.125 3.125 7 2 C4.67182036 1.63239269 2.3381615 1.29758419 0 1 C0 0.67 0 0.34 0 0 Z " fill="#37364D" transform="translate(187,399)"/>
<path d="M0 0 C0.99 0.33 1.98 0.66 3 1 C3.33 1.99 3.66 2.98 4 4 C2.02 4.99 2.02 4.99 0 6 C0 5.01 0 4.02 0 3 C-0.99 2.67 -1.98 2.34 -3 2 C-2.01 1.34 -1.02 0.68 0 0 Z " fill="#303147" transform="translate(327,395)"/>
<path d="M0 0 C0 1.98 0 3.96 0 6 C-1.32 5.34 -2.64 4.68 -4 4 C-4 3.01 -4 2.02 -4 1 C-2 0 -2 0 0 0 Z " fill="#181738" transform="translate(298,389)"/>
<path d="M0 0 C1.32 0.66 2.64 1.32 4 2 C3.01 2.99 2.02 3.98 1 5 C0.01 4.01 -0.98 3.02 -2 2 C-1.34 2 -0.68 2 0 2 C0 1.34 0 0.68 0 0 Z " fill="#1D1D37" transform="translate(247,362)"/>
<path d="M0 0 C2.625 -0.1875 2.625 -0.1875 5 0 C4.67 1.32 4.34 2.64 4 4 C1.03 3.505 1.03 3.505 -2 3 C-1.34 2.01 -0.68 1.02 0 0 Z " fill="#1B1A38" transform="translate(265,359)"/>
<path d="M0 0 C2.95183101 2.95183101 3.08663988 5.95511947 4 10 C2 8.375 2 8.375 0 6 C-0.25 2.75 -0.25 2.75 0 0 Z " fill="#75A0F3" transform="translate(177,223)"/>
<path d="M0 0 C2.97 0.33 5.94 0.66 9 1 C9 1.33 9 1.66 9 2 C5.37 2.33 1.74 2.66 -2 3 C-1.34 2.01 -0.68 1.02 0 0 Z " fill="#729EEE" transform="translate(331,220)"/>
<path d="M0 0 C0.33 0.99 0.66 1.98 1 3 C-2.3 2.67 -5.6 2.34 -9 2 C-5.23312136 0.11656068 -3.97041037 -0.22057835 0 0 Z " fill="#85A9E8" transform="translate(174,213)"/>
<path d="M0 0 C0.66 0.99 1.32 1.98 2 3 C0.1875 4.5625 0.1875 4.5625 -2 6 C-2.99 5.67 -3.98 5.34 -5 5 C-3.35 3.35 -1.7 1.7 0 0 Z " fill="#6EA1F4" transform="translate(201,133)"/>
<path d="M0 0 C2.475 0.99 2.475 0.99 5 2 C3.68 3.32 2.36 4.64 1 6 C0.4465236 3.92446352 0 2.15634036 0 0 Z " fill="#1D1D38" transform="translate(299,394)"/>
<path d="M0 0 C1.32 0 2.64 0 4 0 C4.33 1.65 4.66 3.3 5 5 C3.68 4.67 2.36 4.34 1 4 C0.67 2.68 0.34 1.36 0 0 Z " fill="#12132F" transform="translate(173,394)"/>
</svg>
